{
  "source": "C:\\Users\\Peter\\Desktop\\stuff\\MIUN\\quantitative_research\\video_compression\\videos\\BVI-HD\\BVI-HD_CDVL_videos\\ORIG\\PlasmaSlowRandom_1920x1080_60fps.mp4",
  "output": "C:\\Users\\Peter\\Desktop\\stuff\\MIUN\\quantitative_research\\video_compression\\compressed_videos\\BVI-HD\\vp9\\2\\PlasmaSlowRandom_1920x1080_60fps_vp9.webm",
  "codec": "vp9",
  "ok": "Input #0, mov,mp4,m4a,3gp,3g2,mj2, from 'C:\\Users\\Peter\\Desktop\\stuff\\MIUN\\quantitative_research\\video_compression\\videos\\BVI-HD\\BVI-HD_CDVL_videos\\ORIG\\PlasmaSlowRandom_1920x1080_60fps.mp4':\n  Metadata:\n    major_brand     : isom\n    minor_version   : 512\n    compatible_brands: isomiso2avc1mp41\n    encoder         : Lavf54.28.101\n  Duration: 00:00:05.00, start: 0.000000, bitrate: 23030 kb/s\n  Stream #0:0[0x1](und): Video: h264 (High 4:4:4 Predictive) (avc1 / 0x31637661), yuv420p(progressive), 1920x1080, 23026 kb/s, 60 fps, 60 tbr, 60 tbn (default)\n    Metadata:\n      handler_name    : VideoHandler\n      vendor_id       : [0][0][0][0]\n[out#0/webm @ 000001a560b45040] Codec AVOption b:a (set bitrate (in bits/s)) has not been used for any stream. The most likely reason is either wrong type (e.g. a video option with no video streams) or that it is a private option of some decoder which was not actually used for any stream.\nStream mapping:\n  Stream #0:0 -> #0:0 (h264 (native) -> vp9 (libvpx-vp9))\nPress [q] to stop, [?] for help\n[libvpx-vp9 @ 000001a5605d4a00] v1.15.2-100-g40561f514\nOutput #0, webm, to 'C:\\Users\\Peter\\Desktop\\stuff\\MIUN\\quantitative_research\\video_compression\\compressed_videos\\BVI-HD\\vp9\\2\\PlasmaSlowRandom_1920x1080_60fps_vp9.webm':\n  Metadata:\n    major_brand     : isom\n    minor_version   : 512\n    compatible_brands: isomiso2avc1mp41\n    encoder         : Lavf62.3.100\n  Stream #0:0(und): Video: vp9, yuv420p(tv, progressive), 1920x1080, q=2-31, 2000 kb/s, 60 fps, 1k tbn (default)\n    Metadata:\n      encoder         : Lavc62.11.100 libvpx-vp9\n      handler_name    : VideoHandler\n      vendor_id       : [0][0][0][0]\n    Side data:\n      cpb: bitrate max/min/avg: 0/0/0 buffer size: 2000000 vbv_delay: N/A\nframe=    5 fps=0.0 q=43.0 size=       1KiB time=00:00:00.08 bitrate=  60.8kbits/s speed=0.164x elapsed=0:00:00.50    \nframe=   15 fps= 14 q=35.0 size=       1KiB time=00:00:00.25 bitrate=  20.3kbits/s speed=0.24x elapsed=0:00:01.04    \nframe=   25 fps= 16 q=26.0 size=       1KiB time=00:00:00.41 bitrate=  12.2kbits/s speed=0.269x elapsed=0:00:01.55    \nframe=   35 fps= 17 q=35.0 size=       1KiB time=00:00:00.58 bitrate=   8.7kbits/s speed=0.282x elapsed=0:00:02.07    \nframe=   44 fps= 17 q=38.0 size=       1KiB time=00:00:00.73 bitrate=   6.9kbits/s speed=0.283x elapsed=0:00:02.59    \nframe=   54 fps= 17 q=38.0 size=       1KiB time=00:00:00.90 bitrate=   5.6kbits/s speed=0.29x elapsed=0:00:03.09    \nframe=   63 fps= 17 q=38.0 size=       1KiB time=00:00:01.05 bitrate=   4.8kbits/s speed=0.29x elapsed=0:00:03.62    \nframe=   72 fps= 17 q=39.0 size=       1KiB time=00:00:01.20 bitrate=   4.2kbits/s speed=0.291x elapsed=0:00:04.12    \nframe=   82 fps= 18 q=38.0 size=       1KiB time=00:00:01.36 bitrate=   3.7kbits/s speed=0.294x elapsed=0:00:04.64    \nframe=   91 fps= 18 q=37.0 size=       1KiB time=00:00:01.50 bitrate=   3.4kbits/s speed=0.29x elapsed=0:00:05.16    \nframe=  102 fps= 18 q=38.0 size=       1KiB time=00:00:01.68 bitrate=   3.0kbits/s speed=0.295x elapsed=0:00:05.70    \nframe=  111 fps= 18 q=41.0 size=       1KiB time=00:00:01.85 bitrate=   2.7kbits/s speed=0.297x elapsed=0:00:06.22    \nframe=  120 fps= 18 q=41.0 size=       1KiB time=00:00:02.00 bitrate=   2.5kbits/s speed=0.297x elapsed=0:00:06.73    \nframe=  130 fps= 18 q=44.0 size=     256KiB time=00:00:02.16 bitrate= 967.9kbits/s speed=0.298x elapsed=0:00:07.27    \nframe=  141 fps= 18 q=39.0 size=     256KiB time=00:00:02.35 bitrate= 892.4kbits/s speed=0.302x elapsed=0:00:07.78    \nframe=  149 fps= 18 q=39.0 size=     256KiB time=00:00:02.48 bitrate= 844.5kbits/s speed=0.299x elapsed=0:00:08.30    \nframe=  158 fps= 18 q=39.0 size=     256KiB time=00:00:02.63 bitrate= 796.4kbits/s speed=0.299x elapsed=0:00:08.81    \nframe=  168 fps= 18 q=38.0 size=     256KiB time=00:00:02.80 bitrate= 749.0kbits/s speed= 0.3x elapsed=0:00:09.33    \nframe=  176 fps= 18 q=17.0 size=     256KiB time=00:00:02.93 bitrate= 714.9kbits/s speed=0.298x elapsed=0:00:09.85    \nframe=  186 fps= 18 q=38.0 size=     256KiB time=00:00:03.08 bitrate= 680.2kbits/s speed=0.297x elapsed=0:00:10.37    \nframe=  196 fps= 18 q=38.0 size=     256KiB time=00:00:03.26 bitrate= 642.0kbits/s speed= 0.3x elapsed=0:00:10.89    \nframe=  204 fps= 18 q=39.0 size=     256KiB time=00:00:03.40 bitrate= 616.8kbits/s speed=0.298x elapsed=0:00:11.42    \nframe=  212 fps= 18 q=17.0 size=     256KiB time=00:00:03.53 bitrate= 593.5kbits/s speed=0.295x elapsed=0:00:11.96    \nframe=  222 fps= 18 q=38.0 size=     256KiB time=00:00:03.70 bitrate= 566.8kbits/s speed=0.296x elapsed=0:00:12.48    \nframe=  231 fps= 18 q=43.0 size=     256KiB time=00:00:03.85 bitrate= 544.7kbits/s speed=0.296x elapsed=0:00:13.00    \nframe=  242 fps= 18 q=39.0 size=     256KiB time=00:00:04.03 bitrate= 520.0kbits/s speed=0.298x elapsed=0:00:13.53    \nframe=  252 fps= 18 q=37.0 size=     256KiB time=00:00:04.20 bitrate= 499.3kbits/s speed=0.299x elapsed=0:00:14.06    \nframe=  263 fps= 18 q=37.0 size=     512KiB time=00:00:04.38 bitrate= 956.9kbits/s speed= 0.3x elapsed=0:00:14.59    \nframe=  272 fps= 18 q=40.0 size=     512KiB time=00:00:04.53 bitrate= 925.2kbits/s speed= 0.3x elapsed=0:00:15.10    \nframe=  276 fps= 18 q=38.0 size=     512KiB time=00:00:04.60 bitrate= 911.8kbits/s speed=0.294x elapsed=0:00:15.62    \nframe=  276 fps= 17 q=38.0 size=     512KiB time=00:00:04.60 bitrate= 911.8kbits/s speed=0.285x elapsed=0:00:16.14    \n[out#0/webm @ 000001a560b45040] video:734KiB audio:0KiB subtitle:0KiB other streams:0KiB global headers:0KiB muxing overhead: 0.375602%\nframe=  300 fps= 18 q=39.0 Lsize=     737KiB time=00:00:05.00 bitrate=1207.9kbits/s speed=0.301x elapsed=0:00:16.61    \n",
  "seconds": 16.828816175460815,
  "probe_out": {}
}